<svg width="70" height="98" viewBox="0 0 70 98" fill="none" xmlns="http://www.w3.org/2000/svg">
<path d="M7 67C7 66.4477 7.44772 66 8 66H62C62.5523 66 63 66.4477 63 67C63 67.5523 62.5523 68 62 68H8C7.44771 68 7 67.5523 7 67Z" fill="white"/>
<path d="M35 77C34.4477 77 34 76.5523 34 76V68C34 67.4477 34.4477 67 35 67C35.5523 67 36 67.4477 36 68V76C36 76.5523 35.5523 77 35 77Z" fill="white"/>
<path d="M8 76C7.44772 76 7 75.5523 7 75V67C7 66.4477 7.44772 66 8 66C8.55228 66 9 66.4477 9 67V75C9 75.5523 8.55228 76 8 76Z" fill="white"/>
<path d="M62 76C61.4477 76 61 75.5523 61 75V67C61 66.4477 61.4477 66 62 66C62.5523 66 63 66.4477 63 67V75C63 75.5523 62.5523 76 62 76Z" fill="white"/>
<path d="M42.5 90C42.5 94.1421 39.1421 97.5 35 97.5C30.8579 97.5 27.5 94.1421 27.5 90C27.5 85.8579 30.8579 82.5 35 82.5C39.1421 82.5 42.5 85.8579 42.5 90ZM69.5 90C69.5 94.1421 66.1421 97.5 62 97.5C57.8579 97.5 54.5 94.1421 54.5 90C54.5 85.8579 57.8579 82.5 62 82.5C66.1421 82.5 69.5 85.8579 69.5 90ZM15.5 90C15.5 94.1421 12.1421 97.5 8 97.5C3.85786 97.5 0.5 94.1421 0.5 90C0.5 85.8579 3.85786 82.5 8 82.5C12.1421 82.5 15.5 85.8579 15.5 90Z" fill="white" stroke="white"/>
<path d="M50 15C50 23.2843 43.2843 30 35 30C26.7157 30 20 23.2843 20 15C20 6.71573 26.7157 0 35 0C43.2843 0 50 6.71573 50 15Z" fill="white"/>
<path fill-rule="evenodd" clip-rule="evenodd" d="M41.7692 28.0772L35 42.0001L28.2308 28.0772C18.0138 28.9727 10 37.5505 10 48V55C10 55.5523 10.4477 56 11 56H59C59.5523 56 60 55.5523 60 55V48C60 37.5505 51.9862 28.9727 41.7692 28.0772ZM36 46C36 46.5523 35.5523 47 35 47C34.4477 47 34 46.5523 34 46C34 45.4477 34.4477 45 35 45C35.5523 45 36 45.4477 36 46ZM35 52C35.5523 52 36 51.5523 36 51C36 50.4477 35.5523 50 35 50C34.4477 50 34 50.4477 34 51C34 51.5523 34.4477 52 35 52Z" fill="white"/>
</svg>
