<svg width="78" height="111" viewBox="0 0 78 111" fill="none" xmlns="http://www.w3.org/2000/svg">
<path d="M12 56C11.4477 56 11 56.4477 11 57V65C11 65.5523 11.4477 66 12 66C12.5523 66 13 65.5523 13 65V58H38V76C38 76.5523 38.4477 77 39 77C39.5523 77 40 76.5523 40 76V58H65V65C65 65.5523 65.4477 66 66 66C66.5523 66 67 65.5523 67 65V57C67 56.4477 66.5523 56 66 56H12Z" fill="white"/>
<path fill-rule="evenodd" clip-rule="evenodd" d="M39 97C42.866 97 46 93.866 46 90C46 86.134 42.866 83 39 83C35.134 83 32 86.134 32 90C32 93.866 35.134 97 39 97ZM39 98C43.4183 98 47 94.4183 47 90C47 85.5817 43.4183 82 39 82C34.5817 82 31 85.5817 31 90C31 94.4183 34.5817 98 39 98Z" fill="white"/>
<path fill-rule="evenodd" clip-rule="evenodd" d="M50 110V109C50 102.925 45.0751 98 39 98C32.9249 98 28 102.925 28 109V110H50ZM39 97C32.3726 97 27 102.373 27 109V111H51V109C51 102.373 45.6274 97 39 97Z" fill="white"/>
<path fill-rule="evenodd" clip-rule="evenodd" d="M66 86C69.866 86 73 82.866 73 79C73 75.134 69.866 72 66 72C62.134 72 59 75.134 59 79C59 82.866 62.134 86 66 86ZM66 87C70.4183 87 74 83.4183 74 79C74 74.5817 70.4183 71 66 71C61.5817 71 58 74.5817 58 79C58 83.4183 61.5817 87 66 87Z" fill="white"/>
<path fill-rule="evenodd" clip-rule="evenodd" d="M77 99V98C77 91.9249 72.0751 87 66 87C59.9249 87 55 91.9249 55 98V99H77ZM66 86C59.3726 86 54 91.3726 54 98V100H78V98C78 91.3726 72.6274 86 66 86Z" fill="white"/>
<path fill-rule="evenodd" clip-rule="evenodd" d="M12 86C15.866 86 19 82.866 19 79C19 75.134 15.866 72 12 72C8.13401 72 5 75.134 5 79C5 82.866 8.13401 86 12 86ZM12 87C16.4183 87 20 83.4183 20 79C20 74.5817 16.4183 71 12 71C7.58172 71 4 74.5817 4 79C4 83.4183 7.58172 87 12 87Z" fill="white"/>
<path fill-rule="evenodd" clip-rule="evenodd" d="M23 99V98C23 91.9249 18.0751 87 12 87C5.92487 87 1 91.9249 1 98V99H23ZM12 86C5.37258 86 0 91.3726 0 98V100H24V98C24 91.3726 18.6274 86 12 86Z" fill="white"/>
<path d="M25.4286 13.5H52.5714L53.3734 16.1507H57.0532C57.5761 16.1507 58 16.5647 58 17.0753C58 17.586 57.5761 18 57.0532 18H20.9468C20.4239 18 20 17.586 20 17.0753C20 16.5647 20.4239 16.1507 20.9468 16.1507H24.5649L25.4286 13.5Z" fill="white"/>
<path d="M52.0033 11.5891C52.0033 11.5891 50.4757 6.15727 49.3952 3.33909C48.8997 1.41646 47.203 0 45.186 0C43.8333 0 42.6246 0.637169 41.8257 1.63687C41.0651 2.30748 40.0783 2.71233 39 2.71233C37.9217 2.71233 36.9349 2.30748 36.1743 1.63688C35.3754 0.63717 34.1667 0 32.814 0C31.4188 0 30.1769 0.677736 29.3797 1.73193C29.3037 1.76509 29.195 1.93638 29.0629 2.21166C28.8766 2.53692 28.7288 2.88851 28.626 3.25972C27.5698 6.03122 25.9336 11.5891 25.9336 11.5891H52.0033Z" fill="white"/>
<path fill-rule="evenodd" clip-rule="evenodd" d="M48.1736 28H45.4659L39.4536 41.0173C39.2748 41.4044 38.7246 41.4044 38.5458 41.0173L32.5336 28H29.8263L29.2252 29.0329L31.9752 32.1829L31.0189 33.826L39 45.2535L46.9811 33.826L46.0248 32.1829L48.7748 29.0329L48.1736 28ZM27.5053 28.012C22.2122 28.2699 18 32.643 18 38V50H60V38C60 32.643 55.7878 28.2699 50.4947 28.012L51.2252 29.2671L48.4752 32.4171L49.3522 33.924L39.8331 47.5536C39.7968 47.6083 39.7547 47.6598 39.7071 47.7074C39.6231 47.7915 39.5265 47.8582 39.4225 47.9065C39.2875 47.9696 39.1432 48.0002 39 48.0001C38.8568 48.0002 38.7125 47.9696 38.5775 47.9065C38.4735 47.8582 38.3769 47.7915 38.2929 47.7074C38.2453 47.6598 38.2032 47.6083 38.1669 47.5536L28.6478 33.924L29.5248 32.4171L26.7748 29.2671L27.5053 28.012Z" fill="white"/>
</svg>
