<svg width="98" height="98" viewBox="0 0 98 98" fill="none" xmlns="http://www.w3.org/2000/svg">
<path d="M25.1429 29H60.8571L61.9123 32.5342H66.7542C67.4422 32.5342 68 33.0862 68 33.7671C68 34.448 67.4422 35 66.7542 35H19.2458C18.5578 35 18 34.448 18 33.7671C18 33.0862 18.5578 32.5342 19.2458 32.5342H24.0065L25.1429 29Z" fill="white"/>
<path d="M60.1096 26.4521C60.1096 26.4521 58.0996 19.2097 56.6779 15.4521C56.026 12.8886 53.7934 11 51.1395 11C49.3596 11 47.7692 11.8496 46.718 13.1825C45.7172 14.0766 44.4188 14.6164 43 14.6164C41.5812 14.6164 40.2828 14.0766 39.282 13.1825C38.2308 11.8496 36.6404 11 34.8605 11C33.0247 11 31.3906 11.9036 30.3417 13.3092C30.2417 13.3534 30.0987 13.5818 29.9248 13.9489C29.6797 14.3826 29.4853 14.8513 29.35 15.3463C27.9602 19.0416 25.8073 26.4521 25.8073 26.4521H60.1096Z" fill="white"/>
<path fill-rule="evenodd" clip-rule="evenodd" d="M65 46.6213C65 51.935 60.7467 56.2426 55.5 56.2426C50.2533 56.2426 46 51.935 46 46.6213C46 41.3076 50.2533 37 55.5 37C60.7467 37 65 41.3076 65 46.6213ZM55.5 55.434C60.3058 55.434 64.2017 51.4884 64.2017 46.6213C64.2017 41.7541 60.3058 37.8085 55.5 37.8085C50.6942 37.8085 46.7983 41.7541 46.7983 46.6213C46.7983 51.4884 50.6942 55.434 55.5 55.434Z" fill="white"/>
<path d="M62.4454 55.9191C62.4454 55.7405 62.5883 55.5957 62.7647 55.5957C62.9411 55.5957 63.084 55.7405 63.084 55.9191V58.3447C63.084 58.5233 62.9411 58.6681 62.7647 58.6681C62.5883 58.6681 62.4454 58.5233 62.4454 58.3447V55.9191Z" fill="white"/>
<path d="M62.4454 59.4766C62.4454 59.298 62.5883 59.1532 62.7647 59.1532C62.9411 59.1532 63.084 59.298 63.084 59.4766V61.9021C63.084 62.0807 62.9411 62.2255 62.7647 62.2255C62.5883 62.2255 62.4454 62.0807 62.4454 61.9021V59.4766Z" fill="white"/>
<path d="M62.4454 63.1957C62.4454 63.0171 62.5883 62.8723 62.7647 62.8723C62.9411 62.8723 63.084 63.0171 63.084 63.1957V65.6213C63.084 65.7999 62.9411 65.9447 62.7647 65.9447C62.5883 65.9447 62.4454 65.7999 62.4454 65.6213V63.1957Z" fill="white"/>
<path d="M62.4454 66.7532C62.4454 66.5746 62.5883 66.4298 62.7647 66.4298C62.9411 66.4298 63.084 66.5746 63.084 66.7532V69.1787C63.084 69.3573 62.9411 69.5021 62.7647 69.5021C62.5883 69.5021 62.4454 69.3573 62.4454 69.1787V66.7532Z" fill="white"/>
<path d="M62.4454 70.4723C62.4454 70.2937 62.5883 70.1489 62.7647 70.1489C62.9411 70.1489 63.084 70.2937 63.084 70.4723V72.8979C63.084 73.0765 62.9411 73.2213 62.7647 73.2213C62.5883 73.2213 62.4454 73.0765 62.4454 72.8979V70.4723Z" fill="white"/>
<path fill-rule="evenodd" clip-rule="evenodd" d="M62.976 56.2511C63.0846 56.0421 63.1639 55.7253 63.1639 55.3532C63.1639 54.9811 63.0846 54.6643 62.976 54.4552C62.9218 54.351 62.8675 54.2871 62.8254 54.2529C62.7865 54.2212 62.7672 54.2213 62.7648 54.2213H62.7646C62.7622 54.2213 62.7429 54.2212 62.704 54.2529C62.6619 54.2871 62.6076 54.351 62.5534 54.4552C62.4448 54.6643 62.3655 54.9811 62.3655 55.3532C62.3655 55.7253 62.4448 56.0421 62.5534 56.2511C62.6076 56.3553 62.6619 56.4193 62.704 56.4535C62.7429 56.4852 62.7622 56.4851 62.7646 56.4851H62.7648C62.7672 56.4851 62.7865 56.4852 62.8254 56.4535C62.8675 56.4193 62.9218 56.3553 62.976 56.2511ZM62.7647 56.8894C63.2056 56.8894 63.563 56.2016 63.563 55.3532C63.563 54.5048 63.2056 53.817 62.7647 53.817C62.3238 53.817 61.9664 54.5048 61.9664 55.3532C61.9664 56.2016 62.3238 56.8894 62.7647 56.8894Z" fill="white"/>
<path fill-rule="evenodd" clip-rule="evenodd" d="M62.976 59.8086C63.0846 59.5995 63.1639 59.2827 63.1639 58.9106C63.1639 58.5386 63.0846 58.2218 62.976 58.0127C62.9218 57.9085 62.8675 57.8446 62.8254 57.8103C62.7865 57.7786 62.7672 57.7787 62.7648 57.7787H62.7646C62.7622 57.7787 62.7429 57.7786 62.704 57.8103C62.6619 57.8446 62.6076 57.9085 62.5534 58.0127C62.4448 58.2218 62.3655 58.5386 62.3655 58.9106C62.3655 59.2827 62.4448 59.5995 62.5534 59.8086C62.6076 59.9128 62.6619 59.9767 62.704 60.011C62.7429 60.0426 62.7622 60.0426 62.7646 60.0426H62.7648C62.7672 60.0426 62.7865 60.0426 62.8254 60.011C62.8675 59.9767 62.9218 59.9128 62.976 59.8086ZM62.7647 60.4468C63.2056 60.4468 63.563 59.759 63.563 58.9106C63.563 58.0622 63.2056 57.3745 62.7647 57.3745C62.3238 57.3745 61.9664 58.0622 61.9664 58.9106C61.9664 59.759 62.3238 60.4468 62.7647 60.4468Z" fill="white"/>
<path fill-rule="evenodd" clip-rule="evenodd" d="M62.976 63.5277C63.0846 63.3187 63.1639 63.0019 63.1639 62.6298C63.1639 62.2577 63.0846 61.9409 62.976 61.7318C62.9218 61.6276 62.8675 61.5637 62.8254 61.5294C62.7865 61.4978 62.7672 61.4979 62.7648 61.4979H62.7646C62.7622 61.4979 62.7429 61.4978 62.704 61.5294C62.6619 61.5637 62.6076 61.6276 62.5534 61.7318C62.4448 61.9409 62.3655 62.2577 62.3655 62.6298C62.3655 63.0019 62.4448 63.3187 62.5534 63.5277C62.6076 63.6319 62.6619 63.6959 62.704 63.7301C62.7429 63.7618 62.7622 63.7617 62.7646 63.7617H62.7648C62.7672 63.7617 62.7865 63.7618 62.8254 63.7301C62.8675 63.6959 62.9218 63.6319 62.976 63.5277ZM62.7647 64.166C63.2056 64.166 63.563 63.4782 63.563 62.6298C63.563 61.7814 63.2056 61.0936 62.7647 61.0936C62.3238 61.0936 61.9664 61.7814 61.9664 62.6298C61.9664 63.4782 62.3238 64.166 62.7647 64.166Z" fill="white"/>
<path fill-rule="evenodd" clip-rule="evenodd" d="M62.976 67.0852C63.0846 66.8761 63.1639 66.5593 63.1639 66.1872C63.1639 65.8152 63.0846 65.4984 62.976 65.2893C62.9218 65.1851 62.8675 65.1212 62.8254 65.0869C62.7865 65.0552 62.7672 65.0553 62.7648 65.0553H62.7646C62.7622 65.0553 62.7429 65.0552 62.704 65.0869C62.6619 65.1212 62.6076 65.1851 62.5534 65.2893C62.4448 65.4984 62.3655 65.8152 62.3655 66.1872C62.3655 66.5593 62.4448 66.8761 62.5534 67.0852C62.6076 67.1894 62.6619 67.2533 62.704 67.2876C62.7429 67.3192 62.7622 67.3192 62.7646 67.3191H62.7648C62.7672 67.3192 62.7865 67.3192 62.8254 67.2876C62.8675 67.2533 62.9218 67.1894 62.976 67.0852ZM62.7647 67.7234C63.2056 67.7234 63.563 67.0356 63.563 66.1872C63.563 65.3388 63.2056 64.6511 62.7647 64.6511C62.3238 64.6511 61.9664 65.3388 61.9664 66.1872C61.9664 67.0356 62.3238 67.7234 62.7647 67.7234Z" fill="white"/>
<path fill-rule="evenodd" clip-rule="evenodd" d="M62.976 70.8043C63.0846 70.5953 63.1639 70.2785 63.1639 69.9064C63.1639 69.5343 63.0846 69.2175 62.976 69.0084C62.9218 68.9042 62.8675 68.8403 62.8254 68.806C62.7865 68.7744 62.7672 68.7745 62.7648 68.7745H62.7646C62.7622 68.7745 62.7429 68.7744 62.704 68.806C62.6619 68.8403 62.6076 68.9042 62.5534 69.0084C62.4448 69.2175 62.3655 69.5343 62.3655 69.9064C62.3655 70.2785 62.4448 70.5953 62.5534 70.8043C62.6076 70.9085 62.6619 70.9725 62.704 71.0067C62.7429 71.0384 62.7622 71.0383 62.7646 71.0383H62.7648C62.7672 71.0383 62.7865 71.0384 62.8254 71.0067C62.8675 70.9725 62.9218 70.9085 62.976 70.8043ZM62.7647 71.4426C63.2056 71.4426 63.563 70.7548 63.563 69.9064C63.563 69.058 63.2056 68.3702 62.7647 68.3702C62.3238 68.3702 61.9664 69.058 61.9664 69.9064C61.9664 70.7548 62.3238 71.4426 62.7647 71.4426Z" fill="white"/>
<path fill-rule="evenodd" clip-rule="evenodd" d="M62.976 74.3618C63.0846 74.1527 63.1639 73.8359 63.1639 73.4638C63.1639 73.0918 63.0846 72.7749 62.976 72.5659C62.9218 72.4617 62.8675 72.3977 62.8254 72.3635C62.7865 72.3318 62.7672 72.3319 62.7648 72.3319H62.7646C62.7622 72.3319 62.7429 72.3318 62.704 72.3635C62.6619 72.3977 62.6076 72.4617 62.5534 72.5659C62.4448 72.7749 62.3655 73.0918 62.3655 73.4638C62.3655 73.8359 62.4448 74.1527 62.5534 74.3618C62.6076 74.466 62.6619 74.5299 62.704 74.5642C62.7429 74.5958 62.7622 74.5958 62.7646 74.5957H62.7648C62.7672 74.5958 62.7865 74.5958 62.8254 74.5642C62.8675 74.5299 62.9218 74.466 62.976 74.3618ZM62.7647 75C63.2056 75 63.563 74.3122 63.563 73.4638C63.563 72.6154 63.2056 71.9277 62.7647 71.9277C62.3238 71.9277 61.9664 72.6154 61.9664 73.4638C61.9664 74.3122 62.3238 75 62.7647 75Z" fill="white"/>
<path fill-rule="evenodd" clip-rule="evenodd" d="M63.4422 51.0367L63.8615 51.7177C64.2999 52.4297 64.2782 53.3375 63.8064 54.0272L63.3627 54.6758C62.967 55.2542 62.1872 55.4062 61.6078 55.0178L60.3466 54.1724L63.4422 51.0367ZM61.3509 54.0699L61.9603 54.4784C62.25 54.6726 62.6399 54.5966 62.8377 54.3074L63.2814 53.6588C63.6059 53.1845 63.6229 52.5611 63.3255 52.0697L61.3509 54.0699Z" fill="white"/>
<path fill-rule="evenodd" clip-rule="evenodd" d="M43 82C64.5391 82 82 64.5391 82 43C82 21.4609 64.5391 4 43 4C21.4609 4 4 21.4609 4 43C4 64.5391 21.4609 82 43 82ZM43 86C66.7482 86 86 66.7482 86 43C86 19.2518 66.7482 0 43 0C19.2518 0 0 19.2518 0 43C0 66.7482 19.2518 86 43 86Z" fill="white"/>
<path fill-rule="evenodd" clip-rule="evenodd" d="M75.2426 72.4142L72.4142 75.2426L79.4853 82.3137L78.0711 83.7279L92.2132 97.8701L97.8701 92.2132L83.7279 78.0711L82.3137 79.4853L75.2426 72.4142Z" fill="white"/>
<path d="M45.2856 60.926C40.7289 57.9547 43.4647 52.4005 49.2727 56.3953C50.1098 56.971 50.659 57.2866 52.5561 59.4157C53.6278 60.6184 54.7679 61.6721 56.465 62.1697C58.1621 62.6674 63.4 63.147 61.3902 58.3497C64.0483 60.2153 62.8528 62.4393 61.7811 63.147C56.1344 66.8758 50.5789 64.3777 45.2856 60.926Z" fill="white"/>
<path d="M40.7144 60.926C45.2711 57.9547 42.5353 52.4005 36.7273 56.3953C35.8902 56.971 35.341 57.2866 33.4439 59.4157C32.3722 60.6184 31.2321 61.6721 29.535 62.1697C27.8379 62.6674 22.6 63.147 24.6098 58.3497C21.9517 60.2153 23.1472 62.4393 24.2189 63.147C29.8656 66.8758 35.4211 64.3777 40.7144 60.926Z" fill="white"/>
</svg>
